<?xml version="1.0" standalone="no"?>
<!DOCTYPE svg PUBLIC "-//W3C//DTD SVG 20010904//EN"
 "http://www.w3.org/TR/2001/REC-SVG-20010904/DTD/svg10.dtd">
<svg version="1.0" xmlns="http://www.w3.org/2000/svg"
 width="1080.000000pt" height="1080.000000pt" viewBox="0 0 1080.000000 1080.000000"
 preserveAspectRatio="xMidYMid meet">
<metadata>
Created by potrace 1.16, written by Peter Selinger 2001-2019
</metadata>
<g transform="translate(0.000000,1080.000000) scale(0.100000,-0.100000)"
fill="#000000" stroke="none">
<path d="M5005 6138 c-2 -7 -21 -62 -43 -123 -91 -254 -112 -343 -112 -475 0
-192 83 -329 218 -358 38 -9 66 -6 127 13 17 5 25 -3 47 -49 33 -66 72 -91
126 -81 61 11 112 81 82 111 -6 6 -6 21 -1 40 5 17 16 95 25 175 24 204 19
189 69 189 23 0 65 -3 93 -6 l51 -6 6 -127 c4 -69 11 -143 17 -164 22 -76 67
-94 139 -58 57 30 66 44 50 83 -9 24 -13 123 -15 376 -2 315 -4 345 -21 375
-13 21 -32 36 -59 45 -177 59 -314 -160 -429 -690 -9 -43 -21 -78 -25 -78 -17
0 -17 45 0 96 88 254 8 554 -151 567 -33 2 -34 4 -39 52 -3 28 -9 56 -14 64
-21 32 -132 55 -141 29z m693 -130 c5 -7 12 -29 15 -48 7 -42 -13 -332 -23
-343 -7 -8 -170 10 -179 19 -8 8 36 208 59 269 35 91 97 141 128 103z m-427
-88 c49 -27 84 -155 76 -279 -6 -77 -28 -185 -41 -198 -2 -2 -16 3 -30 12 -35
23 -84 13 -124 -26 -18 -17 -32 -35 -32 -40 0 -5 13 -28 30 -50 44 -61 19 -82
-39 -33 -49 41 -75 142 -68 258 17 239 126 410 228 356z"/>
</g>
</svg>
