<?xml version="1.0" standalone="no"?>
<!DOCTYPE svg PUBLIC "-//W3C//DTD SVG 20010904//EN"
 "http://www.w3.org/TR/2001/REC-SVG-20010904/DTD/svg10.dtd">
<svg version="1.0" xmlns="http://www.w3.org/2000/svg"
 width="1050.000000pt" height="999.000000pt" viewBox="0 0 1050.000000 999.000000"
 preserveAspectRatio="xMidYMid meet">
<metadata>
Created by potrace 1.16, written by Peter Selinger 2001-2019
</metadata>
<g transform="translate(0.000000,999.000000) scale(0.097222,-0.092500)"
fill="#000000" stroke="none">
<path d="M4639 6638 c-35 -9 -37 -12 -48 -69 -14 -68 -65 -222 -139 -414 -145
-380 -285 -812 -341 -1054 -61 -259 -75 -350 -92 -586 -22 -312 17 -614 112
-851 117 -293 292 -497 520 -603 133 -63 233 -85 374 -86 110 0 126 2 189 29
39 16 90 42 115 57 25 16 48 29 52 29 4 0 17 -26 29 -57 13 -32 50 -111 83
-177 96 -191 201 -286 340 -307 216 -34 446 119 503 335 22 81 19 96 -15 96
-16 0 -41 4 -55 10 l-25 9 19 44 c24 53 57 189 69 284 29 213 62 470 71 548
24 212 72 592 77 613 5 20 10 23 42 18 71 -10 140 -17 395 -36 143 -11 262
-23 265 -26 3 -3 4 -136 3 -297 -6 -587 54 -891 201 -1022 51 -47 96 -65 162
-65 150 0 423 149 477 261 15 29 14 34 -8 73 -30 54 -50 134 -69 276 -32 238
-38 508 -29 1265 12 1046 12 1127 -10 1204 -53 195 -174 312 -347 340 -146 24
-329 7 -420 -39 -103 -52 -297 -239 -386 -372 -85 -127 -257 -484 -348 -723
-160 -418 -299 -940 -454 -1709 -11 -54 -22 -101 -25 -103 -3 -3 -10 5 -15 18
-5 13 -21 50 -35 83 -14 32 -26 67 -26 78 0 11 18 69 40 129 169 459 209 997
108 1434 -48 208 -134 403 -240 546 -126 170 -303 260 -488 247 -39 -3 -72 -2
-74 1 -3 4 2 36 11 71 49 209 -43 408 -217 469 -100 35 -275 50 -351 29z
m2549 -513 c67 -57 87 -185 79 -505 -4 -124 -13 -297 -21 -385 -19 -206 -34
-385 -42 -507 -8 -116 21 -107 -239 -78 -365 40 -446 52 -452 67 -9 24 60 402
117 635 72 300 186 567 289 680 100 109 207 146 269 93z m-1610 -351 c116 -57
207 -209 268 -450 71 -281 68 -610 -7 -989 -21 -104 -95 -353 -110 -370 -6 -6
-29 10 -60 43 -28 28 -70 61 -93 72 -148 71 -396 -52 -529 -261 -46 -74 -50
-87 -27 -94 51 -16 220 -242 232 -310 3 -18 -2 -20 -57 -19 -166 2 -297 150
-374 424 -52 186 -56 225 -55 515 0 234 3 287 23 395 74 418 202 728 379 921
135 148 274 189 410 123z"/>
</g>
</svg>
